<svg>
	<symbol id="logo" xmlns="http://www.w3.org/2000/svg" viewBox="0 0 125 25" fill="none">
        <g clip-path="url(#clip0_1_1370)">
            <path d="M70.8108 0.390625H64.2891V24.0625H70.8108V0.390625Z" fill="#B1B1B1"/>
            <path d="M80.2011 6.95312H73.6016V24.1406H80.2011V6.95312Z" fill="#B1B1B1"/>
            <path d="M80.2011 0.390625H73.6016V4.92187H80.2011V0.390625Z" fill="#B1B1B1"/>
            <path d="M0 19.375L6.52174 18.75C6.75466 19.5312 7.14286 20.0781 7.6087 20.3906C8.07453 20.7031 9.70497 21.0156 10.559 21.0156C11.413 21.0156 11.1025 20.7031 11.5683 20.3906C11.9565 20.0781 12.1118 19.7656 12.1118 19.375C12.1118 18.9062 11.8789 18.5156 11.3354 18.2812C10.9472 18.125 10.0155 17.8906 8.54037 17.5781C6.28882 17.1875 4.65839 16.7969 3.80435 16.4844C2.95031 16.1719 2.17391 15.5469 1.5528 14.7656C0.931677 13.9844 0.621118 13.0469 0.621118 12.0312C0.621118 10.8594 0.931677 9.92187 1.63043 9.14062C2.25155 8.35937 3.18323 7.73438 4.34783 7.26563C5.51242 6.875 7.06522 6.64062 8.92857 6.64062C10.9472 6.64062 12.5 6.79688 13.4317 7.10938C14.441 7.42188 15.2174 7.89062 15.8385 8.51562C16.4596 9.14062 17.0031 10.0781 17.4689 11.1719L11.2578 11.7969C11.1025 11.25 10.8696 10.8594 10.4814 10.5469C9.93789 10.2344 9.39441 10 8.61801 10C7.91926 10 7.37578 10.1562 6.98758 10.3906C6.67702 10.625 6.52174 10.9375 6.52174 11.3281C6.52174 11.7187 6.75466 12.0312 7.14286 12.2656C7.53106 12.5 8.54037 12.6562 9.93789 12.8906C12.1118 13.125 13.7422 13.5156 14.7516 13.9062C15.8385 14.375 16.6149 15 17.1584 15.7812C17.7019 16.5625 18.0124 17.5 18.0124 18.5156C18.0124 19.5312 17.7019 20.4687 17.1584 21.4062C16.5373 22.3437 15.6056 23.125 14.3634 23.6719C13.1211 24.2187 11.3354 24.5312 9.16149 24.5312C6.0559 24.5312 3.80435 24.0625 2.48447 23.2031C1.24224 22.2656 0.388199 21.0156 0 19.375Z" fill="#B01736"/>
            <path d="M21.8947 22.4219C23.6027 23.8281 25.7766 24.5312 28.5717 24.5312C31.6773 24.5312 34.0841 23.6719 35.7922 22.0312C37.5002 20.3125 38.4319 18.2031 38.4319 15.5469C38.4319 13.2031 37.7332 11.25 36.3356 9.60938C34.6276 7.57813 31.9878 6.64062 28.5717 6.64062C25.5437 6.64062 23.2145 7.5 21.4288 9.21875C19.6431 10.9375 18.7891 13.0469 18.7891 15.7031C18.7891 18.3594 19.876 20.625 21.8947 22.4219ZM26.3201 12.1094C26.9412 11.3281 27.7176 11.0156 28.7269 11.0156C29.6586 11.0156 30.3574 11.4062 30.9785 12.1094C31.5996 12.8125 31.9102 13.9844 31.9102 15.4687C31.9102 17.1094 31.5996 18.2812 30.9785 18.9844C30.3574 19.6875 29.581 20.0781 28.6493 20.0781C27.7176 20.0781 26.9412 19.6875 26.3201 18.9844C25.699 18.2031 25.3884 17.1094 25.3884 15.5469C25.3884 13.9844 25.699 12.8125 26.3201 12.1094Z" fill="#B01736"/>
            <path d="M47.2088 6.95312H50.3144V11.7969H47.2088V24.1406H40.6095V11.7969H38.125V6.95312H40.6095V6.17187C40.6095 5.46875 40.6871 4.6875 40.8424 3.82812C40.9977 2.96875 41.3082 2.26562 41.6964 1.79687C42.1623 1.25 42.7834 0.78125 43.4821 0.46875C44.2585 0.15625 45.3455 0 46.743 0C47.9076 0 49.538 0.15625 51.7896 0.390625L51.0132 4.375C50.2368 4.21875 49.6157 4.21875 49.0722 4.21875C48.4511 4.21875 48.0629 4.29688 47.83 4.53125C47.5971 4.6875 47.4418 5 47.3641 5.39062C47.2865 5.625 47.2088 6.17187 47.2088 6.95312Z" fill="#B01736"/>
            <path d="M59.0067 11.7969V17.8906C59.0067 18.5938 59.0843 19.1406 59.2396 19.375C59.4725 19.7656 59.8607 19.9219 60.3266 19.9219C60.7924 19.9219 61.4912 19.7656 62.3452 19.5312L62.811 24.0625C61.1806 24.4531 59.7055 24.6094 58.3079 24.6094C56.6775 24.6094 55.5129 24.375 54.7365 23.9844C53.9601 23.5938 53.4166 22.8906 53.0284 22.0312C52.6402 21.1719 52.485 19.7656 52.485 17.8906V11.875H50.0781V6.95312H52.485V3.82812L59.0067 0.390625V6.95312V11.7969Z" fill="#B01736"/>
            <path d="M82.687 6.95312H88.8206V9.76562C89.7522 8.59375 90.6839 7.8125 91.6156 7.34375C92.5473 6.875 93.7119 6.64062 95.0317 6.64062C96.8175 6.64062 98.2926 7.1875 99.3019 8.28125C100.311 9.375 100.855 11.0156 100.855 13.2812V24.2188H94.2553V14.6875C94.2553 13.5937 94.0224 12.8125 93.6342 12.4219C93.246 11.9531 92.7025 11.7188 91.9261 11.7188C91.1497 11.7188 90.5286 12.0313 89.9852 12.6563C89.5193 13.2813 89.2088 14.375 89.2088 15.9375V24.2188H82.6094V6.95312H82.687Z" fill="#B1B1B1"/>
            <path d="M121.97 16.4062C121.97 14.1406 121.582 12.2656 120.884 10.8594C120.107 9.45312 119.098 8.35937 117.623 7.57812C116.225 6.79687 114.284 6.48438 111.877 6.48438C108.849 6.48438 106.52 7.34375 104.812 8.98437C103.104 10.625 102.25 12.8125 102.25 15.4688C102.25 17.3438 102.638 18.9844 103.492 20.3906C104.346 21.7969 105.433 22.8125 106.675 23.4375C107.995 24.0625 109.781 24.375 112.033 24.375C114.595 24.375 116.613 23.9844 118.011 23.2812C119.408 22.5 120.573 21.3281 121.582 19.6094L115.138 18.9844C114.75 19.5312 114.362 19.8438 113.974 20.0781C113.43 20.3906 112.809 20.5469 112.188 20.5469C111.179 20.5469 110.402 20.1562 109.703 19.4531C109.238 18.9062 109.005 18.125 108.849 17.1094H121.893V16.4062H121.97ZM108.927 14.0625C109.005 13.0469 109.315 12.2656 109.703 11.7187C110.325 10.8594 111.179 10.4688 112.188 10.4688C113.12 10.4688 113.818 10.7812 114.362 11.3281C114.905 11.875 115.216 12.8125 115.371 14.0625H108.927Z" fill="#B1B1B1"/>
            <path d="M30.0475 2.65557C37.5009 3.43682 40.5288 4.13995 47.5164 6.01495C53.3394 7.57745 62.5785 6.87432 62.5785 6.87432V11.7181C58.9295 12.1868 51.0878 12.0306 44.5661 9.60868C32.8425 5.38995 27.563 4.53057 21.3518 4.06182C12.8114 3.43682 2.71826 4.76495 2.71826 4.76495L2.64062 3.90557C2.64062 3.90557 17.2369 1.32745 30.0475 2.65557Z" fill="#B1B1B1"/>
            <path d="M121.741 3.59375H122.052C122.518 3.59375 122.595 3.35937 122.595 3.20312C122.595 2.89062 122.13 2.89062 122.052 2.89062H121.741V3.59375ZM122.285 2.34375C122.984 2.34375 123.294 2.73437 123.294 3.125C123.294 3.51562 122.984 3.75 122.673 3.82812C122.828 3.90625 122.984 4.0625 122.984 4.14062L123.449 5.3125H122.673L122.285 4.375C122.285 4.29687 122.13 4.14062 121.897 4.14062H121.741V5.3125H120.965V2.34375H122.285ZM122.052 6.09375C123.294 6.09375 124.303 5.07812 124.303 3.82812C124.303 2.57812 123.294 1.5625 122.052 1.5625C120.81 1.5625 119.8 2.57812 119.8 3.82812C119.8 5.07812 120.81 6.09375 122.052 6.09375ZM122.052 0.859375C123.682 0.859375 125.002 2.1875 125.002 3.82812C125.002 5.46875 123.682 6.79687 122.052 6.79687C120.421 6.79687 119.102 5.46875 119.102 3.82812C119.179 2.1875 120.421 0.859375 122.052 0.859375Z" fill="#B1B1B1"/>
        </g>
        <defs>
            <clipPath id="clip0_1_1370">
                <rect width="125" height="25" fill="white"/>
            </clipPath>
        </defs>
    </symbol>
	<symbol id="arrow_black" xmlns="http://www.w3.org/2000/svg" viewBox="0 0 23 12" fill="none">
        <path d="M1.10156 1.99683L11.1016 10.0179L21.1016 1.99683" stroke="#444444" stroke-width="3"/>
    </symbol>
	<symbol id="arrow_next" xmlns="http://www.w3.org/2000/svg" viewBox="0 0 13 22" fill="none">
        <path d="M1 1L11 11L1 21" stroke="#A30C33" stroke-width="2"/>
    </symbol>
    <symbol id="arrow_prev" xmlns="http://www.w3.org/2000/svg" viewBox="0 0 13 22" fill="none">
        <path d="M12 1L2 11L12 21" stroke="#A30C33" stroke-width="2"/>
    </symbol>
    <symbol id="birthday" xmlns="http://www.w3.org/2000/svg" viewBox="0 0 49 48" fill="none">
        <g opacity="0.9">
            <path d="M9.60425 13.4009C7.50091 13.4009 5.80469 11.7071 5.80469 9.64648C5.80469 9.26165 5.97227 8.58364 6.31932 7.66932C6.653 6.79021 7.10828 5.80362 7.5855 4.84931C8.39362 3.23333 9.24052 1.75768 9.60425 1.13616C9.96801 1.75761 10.815 3.23348 11.6232 4.84965C12.1004 5.80391 12.5556 6.79043 12.8892 7.66947C13.2362 8.58372 13.4038 9.26168 13.4038 9.64648C13.4038 11.7065 11.7075 13.4009 9.60425 13.4009Z" stroke="#B01736" stroke-width="2"/>
            <path d="M5.80469 15.3573C5.80469 14.5842 6.43139 13.9575 7.20446 13.9575H12.004C12.7771 13.9575 13.4038 14.5842 13.4038 15.3573V27.4061H5.80469V15.3573Z" stroke="#B01736" stroke-width="2"/>
            <path d="M20.2033 15.3573C20.2033 14.5842 20.83 13.9575 21.6031 13.9575H26.4026C27.1757 13.9575 27.8024 14.5842 27.8024 15.3573V27.4061H20.2033V15.3573Z" stroke="#B01736" stroke-width="2"/>
            <path d="M27.8024 9.64648V9.64675C27.8029 11.7063 26.1063 13.4009 24.0029 13.4009C21.8995 13.4009 20.2033 11.7071 20.2033 9.64648C20.2033 9.26165 20.3709 8.58364 20.7179 7.66932C21.0516 6.79021 21.5069 5.80362 21.9841 4.84931C22.7922 3.23333 23.6391 1.75768 24.0029 1.13616C24.3666 1.75761 25.2137 3.23348 26.0218 4.84965C26.499 5.80391 26.9542 6.79043 27.2878 7.66947C27.6348 8.58372 27.8024 9.26168 27.8024 9.64648Z" stroke="#B01736" stroke-width="2"/>
            <path d="M34.6019 15.3573C34.6019 14.5842 35.2286 13.9575 36.0017 13.9575H40.8012C41.5743 13.9575 42.201 14.5842 42.201 15.3573V27.4061H34.6019V15.3573Z" stroke="#B01736" stroke-width="2"/>
            <path d="M38.4015 13.4009C36.2981 13.4009 34.6019 11.7071 34.6019 9.64648C34.6019 9.26165 34.7695 8.58364 35.1166 7.66932C35.4502 6.79021 35.9055 5.80362 36.3827 4.84931C37.1909 3.23333 38.0378 1.75769 38.4015 1.13616C38.7653 1.75762 39.6123 3.23348 40.4204 4.84965C40.8976 5.80391 41.3528 6.79043 41.6865 7.66947C42.0335 8.58372 42.201 9.26168 42.201 9.64648C42.201 11.7065 40.5047 13.4009 38.4015 13.4009Z" stroke="#B01736" stroke-width="2"/>
            <path d="M0.734375 36.4871L2.81543 38.1011C3.82907 38.887 5.59749 38.887 6.61112 38.1011L8.69282 36.4871C9.15682 36.1289 9.96348 36.1279 10.4275 36.4871L12.5085 38.1011C13.5566 38.9136 15.2599 38.9122 16.3048 38.1011L18.3859 36.4871C18.8493 36.1289 19.6559 36.1279 20.1205 36.4871L22.2022 38.1011C22.7093 38.4943 23.3834 38.7105 24.1 38.7105C24.8172 38.7105 25.4915 38.4938 25.9992 38.1011L28.0809 36.4871C28.5455 36.1279 29.3522 36.1289 29.8156 36.4871L31.8966 38.1011C32.9447 38.9136 34.648 38.9122 35.6929 38.1011L37.774 36.4871C38.2386 36.1279 39.0453 36.1289 39.5086 36.4871L41.5903 38.1011C42.6358 38.9117 44.3386 38.9132 45.386 38.1011C46.4334 37.289 47.4677 36.4871 47.4677 36.4871" stroke="#B01736" stroke-width="2"/>
            <rect x="1.00391" y="27.4749" width="45.9954" height="19.5226" rx="3.79954" stroke="#B01736" stroke-width="2"/>
        </g>
    </symbol>
    <symbol id="discounts" xmlns="http://www.w3.org/2000/svg" viewBox="0 0 48 48" fill="none">
        <g opacity="0.9" clip-path="url(#clip0_1_388)">
            <mask id="path-1-outside-1_1_388" maskUnits="userSpaceOnUse" x="-6.20328" y="-6.24183" width="60.1041" height="60.1041" fill="black">
                <rect fill="white" x="-6.20328" y="-6.24183" width="60.1041" height="60.1041"/>
                <path fill-rule="evenodd" clip-rule="evenodd" d="M1.70511 28.935L2.44958 28.1906C3.03256 27.6076 3.78468 27.2945 4.55004 27.2547L2.0271 24.7318C1.40366 24.1084 1.08863 23.2859 1.08794 22.4642L1.08695 22.4552L1.08562 22.4539C1.08794 21.6272 1.40031 20.8028 2.02538 20.1777L3.42111 18.782C4.04951 18.1536 4.87487 17.8403 5.69897 17.8406C6.52337 17.8392 7.34846 18.1536 7.97616 18.7813L14.8005 25.6056L25.6057 14.8004L18.7824 7.97648C18.156 7.35006 17.8433 6.52669 17.841 5.70197L17.8426 5.70031L17.8429 5.69733L17.8423 5.69136C17.8456 4.86697 18.1577 4.04621 18.7811 3.42276L20.1789 2.02499C20.8066 1.39724 21.631 1.08484 22.4545 1.08582C23.2782 1.08516 24.1039 1.3989 24.7316 2.0266L27.2553 4.55022C27.2967 3.78519 27.6078 3.03172 28.1891 2.45045L28.9335 1.70598C29.5613 1.07824 30.385 0.765181 31.2107 0.765206C32.0345 0.764542 32.8589 1.07693 33.4869 1.70497L36.7188 4.93685L37.4798 5.69534L42.3051 10.5207L43.0633 11.2814L46.2972 14.5153C46.9216 15.1398 47.2356 15.9658 47.2357 16.7902L47.2367 16.7945C47.2357 17.6166 46.9219 18.4424 46.2955 19.0688L45.551 19.8133C44.9697 20.3946 44.217 20.707 43.4513 20.7471L45.9749 23.2707C46.6016 23.8974 46.9137 24.7215 46.9147 25.5469L46.9133 25.5482C46.9123 26.3749 46.5997 27.1983 45.9748 27.8231L44.5771 29.2208C43.949 29.8489 43.1253 30.162 42.2992 30.1623C41.4761 30.1623 40.6527 29.8489 40.0247 29.2209L33.6803 22.8758L22.8759 33.6802L29.221 40.0253C29.8478 40.652 30.1605 41.4754 30.1608 42.3014L30.1591 42.3031C30.1604 43.1275 29.846 43.9526 29.2194 44.5792L27.8236 45.975C27.1969 46.6017 26.3721 46.9158 25.5475 46.9147C24.7244 46.9147 23.8993 46.603 23.2713 45.975L20.7477 43.4513C20.7066 44.218 20.3955 44.9695 19.8125 45.5525L19.068 46.2969C18.4416 46.9234 17.6159 47.2371 16.7935 47.2384C15.9691 47.237 15.1428 46.9233 14.5167 46.2972L11.2828 43.0633L10.5231 42.3031L5.69738 37.4781L4.93763 36.7189L1.70575 33.487C1.08231 32.8636 0.769642 32.0422 0.766916 31.2184L0.766917 31.2131L0.765259 31.2114L0.766917 31.2098C0.767248 30.3837 1.08097 29.5592 1.70511 28.935ZM2.78561 20.9358L4.18134 19.5401C4.60051 19.1209 5.15032 18.9133 5.69981 18.9143C6.25063 18.9127 6.80044 19.1222 7.21828 19.5401L28.4611 40.7829C28.8803 41.2021 29.0889 41.7509 29.0902 42.298L29.0885 42.303C29.0895 42.8512 28.8786 43.399 28.4595 43.8182L27.0637 45.2139C26.6462 45.6314 26.0961 45.8413 25.5469 45.8413C24.9968 45.8403 24.4476 45.6347 24.0284 45.2156L2.78561 23.9727C2.36711 23.5542 2.15686 23.0031 2.15985 22.4543L2.15819 22.4526C2.15853 21.9038 2.36678 21.3546 2.78561 20.9358ZM2.4645 29.6938L3.20897 28.9493C3.62616 28.5321 4.17663 28.3212 4.72678 28.3229C5.27626 28.3225 5.8264 28.5305 6.24424 28.9483L19.0538 41.7578C19.4706 42.1747 19.6795 42.7238 19.6815 43.2743L19.6799 43.276C19.6795 43.8248 19.4693 44.3753 19.0521 44.7924L18.3076 45.5369C17.8905 45.9541 17.3413 46.163 16.7925 46.1633C16.2404 46.163 15.6912 45.9547 15.2741 45.5375L2.46452 32.728C2.04503 32.3085 1.83645 31.759 1.83612 31.2135L1.83678 31.2076C1.83543 30.6598 2.04733 30.1109 2.4645 29.6938ZM28.9497 3.20853L29.6941 2.46405C30.1113 2.04687 30.6615 1.83631 31.212 1.83763C31.7608 1.83795 32.3116 2.04521 32.7294 2.46305L45.5389 15.2726C45.9558 15.6894 46.1647 16.2386 46.1667 16.7891L46.165 16.7907C46.1647 17.3396 45.9545 17.89 45.5373 18.3072L44.7928 19.0517C44.3753 19.4692 43.8252 19.6791 43.2763 19.6794C42.7259 19.6774 42.1767 19.4692 41.7595 19.052L28.95 6.24247C28.5305 5.82299 28.3203 5.27515 28.3216 4.72799L28.3206 4.72368C28.3206 4.17451 28.5318 3.62636 28.9497 3.20853ZM19.5405 4.18085L20.9383 2.78308C21.3554 2.36594 21.9052 2.15834 22.455 2.159C23.0042 2.15901 23.5557 2.36693 23.9735 2.78477L41.0005 19.8118L45.2167 24.0273C45.6358 24.4464 45.8441 24.9956 45.8457 25.5424L45.8441 25.5474C45.8438 26.0969 45.6335 26.644 45.2164 27.0612L43.8186 28.459C43.4011 28.8765 42.8506 29.0867 42.3018 29.0864C41.7516 29.0854 41.2025 28.8798 40.7833 28.4606L19.5405 7.21779C19.122 6.79928 18.9114 6.24847 18.9131 5.70098L18.9131 5.69766C18.9124 5.14982 19.1227 4.59869 19.5405 4.18085ZM15.739 26.1843L21.052 20.8713L26.3651 15.5582L32.922 22.1152L22.296 32.7413L15.739 26.1843Z"/>
            </mask>
            <path fill-rule="evenodd" clip-rule="evenodd" d="M1.70511 28.935L2.44958 28.1906C3.03256 27.6076 3.78468 27.2945 4.55004 27.2547L2.0271 24.7318C1.40366 24.1084 1.08863 23.2859 1.08794 22.4642L1.08695 22.4552L1.08562 22.4539C1.08794 21.6272 1.40031 20.8028 2.02538 20.1777L3.42111 18.782C4.04951 18.1536 4.87487 17.8403 5.69897 17.8406C6.52337 17.8392 7.34846 18.1536 7.97616 18.7813L14.8005 25.6056L25.6057 14.8004L18.7824 7.97648C18.156 7.35006 17.8433 6.52669 17.841 5.70197L17.8426 5.70031L17.8429 5.69733L17.8423 5.69136C17.8456 4.86697 18.1577 4.04621 18.7811 3.42276L20.1789 2.02499C20.8066 1.39724 21.631 1.08484 22.4545 1.08582C23.2782 1.08516 24.1039 1.3989 24.7316 2.0266L27.2553 4.55022C27.2967 3.78519 27.6078 3.03172 28.1891 2.45045L28.9335 1.70598C29.5613 1.07824 30.385 0.765181 31.2107 0.765206C32.0345 0.764542 32.8589 1.07693 33.4869 1.70497L36.7188 4.93685L37.4798 5.69534L42.3051 10.5207L43.0633 11.2814L46.2972 14.5153C46.9216 15.1398 47.2356 15.9658 47.2357 16.7902L47.2367 16.7945C47.2357 17.6166 46.9219 18.4424 46.2955 19.0688L45.551 19.8133C44.9697 20.3946 44.217 20.707 43.4513 20.7471L45.9749 23.2707C46.6016 23.8974 46.9137 24.7215 46.9147 25.5469L46.9133 25.5482C46.9123 26.3749 46.5997 27.1983 45.9748 27.8231L44.5771 29.2208C43.949 29.8489 43.1253 30.162 42.2992 30.1623C41.4761 30.1623 40.6527 29.8489 40.0247 29.2209L33.6803 22.8758L22.8759 33.6802L29.221 40.0253C29.8478 40.652 30.1605 41.4754 30.1608 42.3014L30.1591 42.3031C30.1604 43.1275 29.846 43.9526 29.2194 44.5792L27.8236 45.975C27.1969 46.6017 26.3721 46.9158 25.5475 46.9147C24.7244 46.9147 23.8993 46.603 23.2713 45.975L20.7477 43.4513C20.7066 44.218 20.3955 44.9695 19.8125 45.5525L19.068 46.2969C18.4416 46.9234 17.6159 47.2371 16.7935 47.2384C15.9691 47.237 15.1428 46.9233 14.5167 46.2972L11.2828 43.0633L10.5231 42.3031L5.69738 37.4781L4.93763 36.7189L1.70575 33.487C1.08231 32.8636 0.769642 32.0422 0.766916 31.2184L0.766917 31.2131L0.765259 31.2114L0.766917 31.2098C0.767248 30.3837 1.08097 29.5592 1.70511 28.935ZM2.78561 20.9358L4.18134 19.5401C4.60051 19.1209 5.15032 18.9133 5.69981 18.9143C6.25063 18.9127 6.80044 19.1222 7.21828 19.5401L28.4611 40.7829C28.8803 41.2021 29.0889 41.7509 29.0902 42.298L29.0885 42.303C29.0895 42.8512 28.8786 43.399 28.4595 43.8182L27.0637 45.2139C26.6462 45.6314 26.0961 45.8413 25.5469 45.8413C24.9968 45.8403 24.4476 45.6347 24.0284 45.2156L2.78561 23.9727C2.36711 23.5542 2.15686 23.0031 2.15985 22.4543L2.15819 22.4526C2.15853 21.9038 2.36678 21.3546 2.78561 20.9358ZM2.4645 29.6938L3.20897 28.9493C3.62616 28.5321 4.17663 28.3212 4.72678 28.3229C5.27626 28.3225 5.8264 28.5305 6.24424 28.9483L19.0538 41.7578C19.4706 42.1747 19.6795 42.7238 19.6815 43.2743L19.6799 43.276C19.6795 43.8248 19.4693 44.3753 19.0521 44.7924L18.3076 45.5369C17.8905 45.9541 17.3413 46.163 16.7925 46.1633C16.2404 46.163 15.6912 45.9547 15.2741 45.5375L2.46452 32.728C2.04503 32.3085 1.83645 31.759 1.83612 31.2135L1.83678 31.2076C1.83543 30.6598 2.04733 30.1109 2.4645 29.6938ZM28.9497 3.20853L29.6941 2.46405C30.1113 2.04687 30.6615 1.83631 31.212 1.83763C31.7608 1.83795 32.3116 2.04521 32.7294 2.46305L45.5389 15.2726C45.9558 15.6894 46.1647 16.2386 46.1667 16.7891L46.165 16.7907C46.1647 17.3396 45.9545 17.89 45.5373 18.3072L44.7928 19.0517C44.3753 19.4692 43.8252 19.6791 43.2763 19.6794C42.7259 19.6774 42.1767 19.4692 41.7595 19.052L28.95 6.24247C28.5305 5.82299 28.3203 5.27515 28.3216 4.72799L28.3206 4.72368C28.3206 4.17451 28.5318 3.62636 28.9497 3.20853ZM19.5405 4.18085L20.9383 2.78308C21.3554 2.36594 21.9052 2.15834 22.455 2.159C23.0042 2.15901 23.5557 2.36693 23.9735 2.78477L41.0005 19.8118L45.2167 24.0273C45.6358 24.4464 45.8441 24.9956 45.8457 25.5424L45.8441 25.5474C45.8438 26.0969 45.6335 26.644 45.2164 27.0612L43.8186 28.459C43.4011 28.8765 42.8506 29.0867 42.3018 29.0864C41.7516 29.0854 41.2025 28.8798 40.7833 28.4606L19.5405 7.21779C19.122 6.79928 18.9114 6.24847 18.9131 5.70098L18.9131 5.69766C18.9124 5.14982 19.1227 4.59869 19.5405 4.18085ZM15.739 26.1843L21.052 20.8713L26.3651 15.5582L32.922 22.1152L22.296 32.7413L15.739 26.1843Z" fill="#B01736"/>
            <path fill-rule="evenodd" clip-rule="evenodd" d="M1.70511 28.935L2.44958 28.1906C3.03256 27.6076 3.78468 27.2945 4.55004 27.2547L2.0271 24.7318C1.40366 24.1084 1.08863 23.2859 1.08794 22.4642L1.08695 22.4552L1.08562 22.4539C1.08794 21.6272 1.40031 20.8028 2.02538 20.1777L3.42111 18.782C4.04951 18.1536 4.87487 17.8403 5.69897 17.8406C6.52337 17.8392 7.34846 18.1536 7.97616 18.7813L14.8005 25.6056L25.6057 14.8004L18.7824 7.97648C18.156 7.35006 17.8433 6.52669 17.841 5.70197L17.8426 5.70031L17.8429 5.69733L17.8423 5.69136C17.8456 4.86697 18.1577 4.04621 18.7811 3.42276L20.1789 2.02499C20.8066 1.39724 21.631 1.08484 22.4545 1.08582C23.2782 1.08516 24.1039 1.3989 24.7316 2.0266L27.2553 4.55022C27.2967 3.78519 27.6078 3.03172 28.1891 2.45045L28.9335 1.70598C29.5613 1.07824 30.385 0.765181 31.2107 0.765206C32.0345 0.764542 32.8589 1.07693 33.4869 1.70497L36.7188 4.93685L37.4798 5.69534L42.3051 10.5207L43.0633 11.2814L46.2972 14.5153C46.9216 15.1398 47.2356 15.9658 47.2357 16.7902L47.2367 16.7945C47.2357 17.6166 46.9219 18.4424 46.2955 19.0688L45.551 19.8133C44.9697 20.3946 44.217 20.707 43.4513 20.7471L45.9749 23.2707C46.6016 23.8974 46.9137 24.7215 46.9147 25.5469L46.9133 25.5482C46.9123 26.3749 46.5997 27.1983 45.9748 27.8231L44.5771 29.2208C43.949 29.8489 43.1253 30.162 42.2992 30.1623C41.4761 30.1623 40.6527 29.8489 40.0247 29.2209L33.6803 22.8758L22.8759 33.6802L29.221 40.0253C29.8478 40.652 30.1605 41.4754 30.1608 42.3014L30.1591 42.3031C30.1604 43.1275 29.846 43.9526 29.2194 44.5792L27.8236 45.975C27.1969 46.6017 26.3721 46.9158 25.5475 46.9147C24.7244 46.9147 23.8993 46.603 23.2713 45.975L20.7477 43.4513C20.7066 44.218 20.3955 44.9695 19.8125 45.5525L19.068 46.2969C18.4416 46.9234 17.6159 47.2371 16.7935 47.2384C15.9691 47.237 15.1428 46.9233 14.5167 46.2972L11.2828 43.0633L10.5231 42.3031L5.69738 37.4781L4.93763 36.7189L1.70575 33.487C1.08231 32.8636 0.769642 32.0422 0.766916 31.2184L0.766917 31.2131L0.765259 31.2114L0.766917 31.2098C0.767248 30.3837 1.08097 29.5592 1.70511 28.935ZM2.78561 20.9358L4.18134 19.5401C4.60051 19.1209 5.15032 18.9133 5.69981 18.9143C6.25063 18.9127 6.80044 19.1222 7.21828 19.5401L28.4611 40.7829C28.8803 41.2021 29.0889 41.7509 29.0902 42.298L29.0885 42.303C29.0895 42.8512 28.8786 43.399 28.4595 43.8182L27.0637 45.2139C26.6462 45.6314 26.0961 45.8413 25.5469 45.8413C24.9968 45.8403 24.4476 45.6347 24.0284 45.2156L2.78561 23.9727C2.36711 23.5542 2.15686 23.0031 2.15985 22.4543L2.15819 22.4526C2.15853 21.9038 2.36678 21.3546 2.78561 20.9358ZM2.4645 29.6938L3.20897 28.9493C3.62616 28.5321 4.17663 28.3212 4.72678 28.3229C5.27626 28.3225 5.8264 28.5305 6.24424 28.9483L19.0538 41.7578C19.4706 42.1747 19.6795 42.7238 19.6815 43.2743L19.6799 43.276C19.6795 43.8248 19.4693 44.3753 19.0521 44.7924L18.3076 45.5369C17.8905 45.9541 17.3413 46.163 16.7925 46.1633C16.2404 46.163 15.6912 45.9547 15.2741 45.5375L2.46452 32.728C2.04503 32.3085 1.83645 31.759 1.83612 31.2135L1.83678 31.2076C1.83543 30.6598 2.04733 30.1109 2.4645 29.6938ZM28.9497 3.20853L29.6941 2.46405C30.1113 2.04687 30.6615 1.83631 31.212 1.83763C31.7608 1.83795 32.3116 2.04521 32.7294 2.46305L45.5389 15.2726C45.9558 15.6894 46.1647 16.2386 46.1667 16.7891L46.165 16.7907C46.1647 17.3396 45.9545 17.89 45.5373 18.3072L44.7928 19.0517C44.3753 19.4692 43.8252 19.6791 43.2763 19.6794C42.7259 19.6774 42.1767 19.4692 41.7595 19.052L28.95 6.24247C28.5305 5.82299 28.3203 5.27515 28.3216 4.72799L28.3206 4.72368C28.3206 4.17451 28.5318 3.62636 28.9497 3.20853ZM19.5405 4.18085L20.9383 2.78308C21.3554 2.36594 21.9052 2.15834 22.455 2.159C23.0042 2.15901 23.5557 2.36693 23.9735 2.78477L41.0005 19.8118L45.2167 24.0273C45.6358 24.4464 45.8441 24.9956 45.8457 25.5424L45.8441 25.5474C45.8438 26.0969 45.6335 26.644 45.2164 27.0612L43.8186 28.459C43.4011 28.8765 42.8506 29.0867 42.3018 29.0864C41.7516 29.0854 41.2025 28.8798 40.7833 28.4606L19.5405 7.21779C19.122 6.79928 18.9114 6.24847 18.9131 5.70098L18.9131 5.69766C18.9124 5.14982 19.1227 4.59869 19.5405 4.18085ZM15.739 26.1843L21.052 20.8713L26.3651 15.5582L32.922 22.1152L22.296 32.7413L15.739 26.1843Z" stroke="#B01736" stroke-width="0.8" mask="url(#path-1-outside-1_1_388)"/>
        </g>
        <defs>
            <clipPath id="clip0_1_388">
                <rect width="48" height="48" fill="white"/>
            </clipPath>
        </defs>
    </symbol>
    <symbol id="house" xmlns="http://www.w3.org/2000/svg" viewBox="0 0 48 48" fill="none">
        <rect x="26.9375" y="27.8945" width="9" height="9" rx="1" stroke="#B01736" stroke-width="2"/>
        <path d="M8.14844 21.2354V35.1177V46.0001C8.14844 46.5524 8.59615 47.0001 9.14844 47.0001H38.9329C39.4852 47.0001 39.9329 46.5524 39.9329 46.0001V21.2354M22.1484 47.0001V28.8952C22.1484 28.3429 21.7007 27.8952 21.1484 27.8952H14.1484C13.5962 27.8952 13.1484 28.3429 13.1484 28.8952V47.0001" stroke="#B01736" stroke-width="2"/>
        <path d="M2.44763 21H45.5524C46.915 21 47.5201 19.3298 46.4597 18.4956L24.6194 1.31241C24.0844 0.891515 23.3193 0.8964 22.79 1.32409L1.52562 18.5073C0.483846 19.3491 1.09448 21 2.44763 21Z" stroke="#B01736" stroke-width="2"/>
    </symbol>
    <symbol id="lti" xmlns="http://www.w3.org/2000/svg" viewBox="0 0 68 50" fill="none">
        <g opacity="0.9">
            <mask id="path-1-outside-1_1_394" maskUnits="userSpaceOnUse" x="0" y="0" width="68" height="50" fill="black">
                <rect fill="white" width="68" height="50"/>
                <path d="M51.6174 1C51.1738 1.00652 50.7504 1.1855 50.4362 1.49842L44.8425 7.08052C44.5212 7.39996 44.3412 7.83377 44.3412 8.28655C44.3412 8.73933 44.5218 9.17315 44.8431 9.49317L45.1133 9.76222C44.5135 10.3934 43.7343 10.8266 42.8809 11.0038C42.0274 11.181 41.1402 11.0933 40.3378 10.7531C39.2676 10.2986 38.0864 10.1741 36.9451 10.3952C35.803 10.6162 34.7543 11.1727 33.9318 11.9929L33.2756 12.6478C32.5219 11.8003 31.5231 11.207 30.4166 10.9498C28.037 10.5225 25.599 10.5278 23.2212 10.967C23.8276 10.2937 23.8008 9.26424 23.1601 8.62369L17.5639 3.03916C16.897 2.37421 15.8155 2.37362 15.1486 3.03856L1.50019 16.6586C0.83327 17.3241 0.83327 18.4034 1.50019 19.0689L7.09634 24.6535C7.76326 25.319 8.84469 25.319 9.51166 24.6535L9.75276 24.4105C11.1971 25.9935 12.3326 27.8312 13.1022 29.8296C13.9995 31.4624 15.2521 32.8729 16.7681 33.9574C16.2051 34.6271 15.9456 35.5 16.0525 36.3677C16.1594 37.2354 16.622 38.0201 17.3305 38.5344C18.039 39.0482 18.9299 39.2455 19.7898 39.079C19.5606 39.7967 19.5956 40.5725 19.8902 41.2659C20.1841 41.9598 20.7174 42.5258 21.3933 42.8607C22.0697 43.1961 22.8435 43.2785 23.5752 43.0936C23.3478 43.9921 23.5271 44.9444 24.067 45.6983C24.6062 46.4521 25.4501 46.931 26.3754 47.008C27.3007 47.0851 28.2129 46.752 28.8697 46.0977L29.1684 45.8026C29.1565 46.6436 29.4813 47.4537 30.0717 48.0547C30.6614 48.655 31.4673 48.9958 32.31 48.9999C33.1527 49.0047 33.9622 48.6734 34.559 48.079L37.0265 45.6195C37.1209 45.5247 37.2088 45.4245 37.2902 45.319C37.9292 45.7647 38.7101 45.9591 39.484 45.8649C40.2578 45.7706 40.9693 45.3937 41.4819 44.8076C41.9944 44.2209 42.2711 43.4664 42.2598 42.6889L42.6868 43.112C43.4066 43.8315 44.4299 44.1604 45.4353 43.9956C46.4407 43.8303 47.3042 43.1914 47.755 42.2794C48.2057 41.3679 48.1885 40.2953 47.7081 39.3986C48.6458 39.4727 49.5674 39.126 50.2232 38.4528C50.8789 37.7795 51.1995 36.8497 51.0985 35.9168L54.6802 32.3425C56.2439 30.7809 57.1977 28.7126 57.3682 26.5109C57.4697 25.2029 57.6811 23.9056 58.0007 22.6327L58.4912 23.1163C59.1581 23.7818 60.2396 23.7818 60.9065 23.1163L66.5003 17.5342C67.1666 16.8686 67.1666 15.79 66.5003 15.1245L52.8519 1.50442C52.5253 1.17847 52.0798 0.9989 51.6178 1.006L51.6174 1ZM51.6323 1.88897C51.8526 1.88719 52.064 1.97371 52.219 2.12957L65.8645 15.7467C66.0177 15.8996 66.1038 16.1071 66.1038 16.3234C66.1038 16.5397 66.0177 16.7471 65.8645 16.8994L60.2738 22.4809C60.1206 22.6338 59.9127 22.7204 59.696 22.7204C59.4792 22.7204 59.2719 22.6344 59.1187 22.4815L45.4673 8.86148C45.1496 8.54382 45.1496 8.02941 45.4673 7.71176L51.0639 2.12965C51.2142 1.97853 51.4185 1.89192 51.6323 1.88897ZM16.3441 3.42692C16.5644 3.42336 16.777 3.50929 16.9332 3.66516L22.5269 9.25015C22.8446 9.5684 22.8446 10.0816 22.5269 10.3999L8.87855 24.0199C8.72533 24.1728 8.51747 24.2587 8.3007 24.2587C8.08453 24.2587 7.87667 24.1728 7.72346 24.0199L2.13278 18.4378C1.97956 18.2849 1.89286 18.0775 1.89286 17.8612C1.89286 17.6448 1.97956 17.4374 2.13278 17.2851L15.7812 3.66507C15.9308 3.51572 16.1327 3.42988 16.3441 3.42692ZM45.7395 10.3904L57.2749 21.896C56.8663 23.3811 56.5997 24.9024 56.4797 26.4381C56.3247 28.4275 55.463 30.2962 54.0502 31.7072L50.8226 34.9252C50.6664 34.5892 50.452 34.2834 50.1895 34.0215L36.7649 20.6247C38.6114 20.7379 40.4452 20.2502 41.9898 19.2344C42.1727 19.0916 42.2161 18.8332 42.0884 18.6394C41.9607 18.4456 41.706 18.3816 41.5023 18.493C39.6744 19.6949 37.4182 20.0575 35.3045 19.4892C34.7148 19.3304 34.0853 19.4987 33.653 19.9295L27.4992 26.0706C26.9231 26.6253 26.0964 26.8357 25.3244 26.6241C24.5523 26.4125 23.9495 25.8104 23.7381 25.0394C23.5266 24.269 23.7381 23.444 24.2951 22.8697L34.562 12.6241C35.2586 11.929 36.1471 11.4572 37.1145 11.27C38.0813 11.0827 39.0825 11.1882 39.9894 11.5728C40.9551 11.9811 42.0222 12.0872 43.0491 11.8762C44.0759 11.6647 45.0151 11.146 45.7395 10.3904ZM27.748 11.5431C28.5824 11.5816 29.4138 11.6747 30.2357 11.8216C31.171 12.0439 32.0127 12.5535 32.6421 13.2784L23.6615 22.2403C22.8788 23.0391 22.5789 24.193 22.8729 25.2717C23.1668 26.3497 24.0107 27.1924 25.0916 27.4858C26.1719 27.7792 27.3276 27.4799 28.1288 26.6988L34.2826 20.5578C34.4358 20.4049 34.6436 20.319 34.8604 20.319C35.0766 20.319 35.2844 20.4049 35.4377 20.5578L49.5595 34.6497C50.1177 35.2239 50.3309 36.0495 50.1195 36.8216C49.9087 37.5933 49.3047 38.1966 48.5315 38.4075C47.7583 38.6191 46.9305 38.4075 46.355 37.8504L42.7211 34.2241C42.5454 34.0611 42.2716 34.0653 42.1011 34.2342C41.9313 34.4037 41.9254 34.6763 42.0881 34.8523L46.5232 39.2782C47.0666 39.8554 47.2685 40.675 47.0547 41.4377C46.8409 42.2004 46.2435 42.7966 45.4786 43.0087C44.7143 43.2215 43.8941 43.0194 43.3156 42.4765L36.8714 36.0457C36.695 35.8851 36.4242 35.8911 36.2556 36.0594C36.0869 36.2277 36.081 36.4991 36.2419 36.6745L40.7031 41.1324C41.2406 41.6794 41.4639 42.4599 41.297 43.2073C41.1307 43.9546 40.5968 44.5668 39.8782 44.8352C39.1597 45.1031 38.3538 44.9905 37.7367 44.5359C38.0289 43.7939 38.0277 42.969 37.7349 42.2276C37.4416 41.4862 36.878 40.8828 36.1576 40.5397C35.4366 40.196 34.6124 40.1379 33.8504 40.3767C34.0054 39.6021 33.8634 38.798 33.4525 38.123C33.0415 37.448 32.3924 36.9513 31.6322 36.7315C30.872 36.5116 30.0573 36.5845 29.3482 36.9353C29.4296 36.0689 29.1481 35.2077 28.5714 34.5558C27.9942 33.9033 27.1728 33.5181 26.3016 33.4914C25.4298 33.4642 24.5859 33.7972 23.9694 34.4124L23.1914 35.1888C23.2039 34.3478 22.8785 33.537 22.2887 32.9361C21.699 32.3357 20.8931 31.9955 20.0504 31.9908C19.2076 31.986 18.3976 32.3179 17.8014 32.9118L17.4005 33.3088C15.9615 32.3031 14.7702 30.9839 13.9174 29.4507C13.1044 27.3575 11.9083 25.4332 10.3911 23.7762L22.0565 12.135C23.9148 11.6537 25.8342 11.4546 27.7518 11.5435L27.748 11.5431ZM19.9284 32.8805C20.5407 32.8527 21.1393 33.0743 21.5858 33.4939C22.0324 33.9135 22.2896 34.4955 22.2991 35.1077C22.308 35.7193 22.0687 36.309 21.6351 36.7422L20.7936 37.579C20.2152 38.1183 19.3968 38.3174 18.6343 38.104C17.8723 37.8907 17.2767 37.2969 17.0629 36.5359C16.8497 35.7755 17.0486 34.9588 17.589 34.3811L18.4252 33.5413C18.8267 33.1413 19.3618 32.9054 19.9284 32.8805ZM26.233 34.4185C26.8192 34.4374 27.375 34.6822 27.7842 35.1012C28.1934 35.5208 28.4244 36.0814 28.428 36.6669C28.4315 37.2519 28.2076 37.8154 27.8038 38.2397L24.4051 41.6344C23.8267 42.1731 23.0077 42.3722 22.2458 42.1589C21.4839 41.9455 20.8882 41.3517 20.6744 40.5914C20.4612 39.8304 20.6602 39.0143 21.2 38.4365L24.5987 35.0419C25.0375 34.6247 25.6267 34.3995 26.233 34.4185ZM30.7987 37.5293C31.3854 37.5494 31.9419 37.7971 32.3499 38.2179C32.7584 38.6393 32.9871 39.2017 32.9877 39.7879C32.9889 40.374 32.762 40.937 32.3552 41.3595L30.0937 43.6157L28.242 45.4636C27.6689 46.0361 26.8333 46.2601 26.05 46.0509C25.2672 45.8417 24.6549 45.2319 24.4453 44.4507C24.235 43.6691 24.4583 42.8353 25.0314 42.2627L29.1506 38.158C29.593 37.7349 30.1863 37.5079 30.7987 37.5293ZM34.8245 41.1615C35.4112 41.1805 35.9683 41.4258 36.3775 41.846C36.7867 42.2656 37.0171 42.8274 37.0195 43.4129C37.0224 43.9985 36.798 44.5621 36.3923 44.9858L33.9308 47.4453C33.3571 48.0112 32.5245 48.2299 31.7459 48.0195C30.9668 47.8097 30.3581 47.2023 30.1478 46.4253C29.937 45.6477 30.1567 44.8174 30.7238 44.2444L33.1884 41.7849C33.6285 41.3671 34.2169 41.1419 34.8245 41.1615Z"/>
            </mask>
            <path d="M51.6174 1C51.1738 1.00652 50.7504 1.1855 50.4362 1.49842L44.8425 7.08052C44.5212 7.39996 44.3412 7.83377 44.3412 8.28655C44.3412 8.73933 44.5218 9.17315 44.8431 9.49317L45.1133 9.76222C44.5135 10.3934 43.7343 10.8266 42.8809 11.0038C42.0274 11.181 41.1402 11.0933 40.3378 10.7531C39.2676 10.2986 38.0864 10.1741 36.9451 10.3952C35.803 10.6162 34.7543 11.1727 33.9318 11.9929L33.2756 12.6478C32.5219 11.8003 31.5231 11.207 30.4166 10.9498C28.037 10.5225 25.599 10.5278 23.2212 10.967C23.8276 10.2937 23.8008 9.26424 23.1601 8.62369L17.5639 3.03916C16.897 2.37421 15.8155 2.37362 15.1486 3.03856L1.50019 16.6586C0.83327 17.3241 0.83327 18.4034 1.50019 19.0689L7.09634 24.6535C7.76326 25.319 8.84469 25.319 9.51166 24.6535L9.75276 24.4105C11.1971 25.9935 12.3326 27.8312 13.1022 29.8296C13.9995 31.4624 15.2521 32.8729 16.7681 33.9574C16.2051 34.6271 15.9456 35.5 16.0525 36.3677C16.1594 37.2354 16.622 38.0201 17.3305 38.5344C18.039 39.0482 18.9299 39.2455 19.7898 39.079C19.5606 39.7967 19.5956 40.5725 19.8902 41.2659C20.1841 41.9598 20.7174 42.5258 21.3933 42.8607C22.0697 43.1961 22.8435 43.2785 23.5752 43.0936C23.3478 43.9921 23.5271 44.9444 24.067 45.6983C24.6062 46.4521 25.4501 46.931 26.3754 47.008C27.3007 47.0851 28.2129 46.752 28.8697 46.0977L29.1684 45.8026C29.1565 46.6436 29.4813 47.4537 30.0717 48.0547C30.6614 48.655 31.4673 48.9958 32.31 48.9999C33.1527 49.0047 33.9622 48.6734 34.559 48.079L37.0265 45.6195C37.1209 45.5247 37.2088 45.4245 37.2902 45.319C37.9292 45.7647 38.7101 45.9591 39.484 45.8649C40.2578 45.7706 40.9693 45.3937 41.4819 44.8076C41.9944 44.2209 42.2711 43.4664 42.2598 42.6889L42.6868 43.112C43.4066 43.8315 44.4299 44.1604 45.4353 43.9956C46.4407 43.8303 47.3042 43.1914 47.755 42.2794C48.2057 41.3679 48.1885 40.2953 47.7081 39.3986C48.6458 39.4727 49.5674 39.126 50.2232 38.4528C50.8789 37.7795 51.1995 36.8497 51.0985 35.9168L54.6802 32.3425C56.2439 30.7809 57.1977 28.7126 57.3682 26.5109C57.4697 25.2029 57.6811 23.9056 58.0007 22.6327L58.4912 23.1163C59.1581 23.7818 60.2396 23.7818 60.9065 23.1163L66.5003 17.5342C67.1666 16.8686 67.1666 15.79 66.5003 15.1245L52.8519 1.50442C52.5253 1.17847 52.0798 0.9989 51.6178 1.006L51.6174 1ZM51.6323 1.88897C51.8526 1.88719 52.064 1.97371 52.219 2.12957L65.8645 15.7467C66.0177 15.8996 66.1038 16.1071 66.1038 16.3234C66.1038 16.5397 66.0177 16.7471 65.8645 16.8994L60.2738 22.4809C60.1206 22.6338 59.9127 22.7204 59.696 22.7204C59.4792 22.7204 59.2719 22.6344 59.1187 22.4815L45.4673 8.86148C45.1496 8.54382 45.1496 8.02941 45.4673 7.71176L51.0639 2.12965C51.2142 1.97853 51.4185 1.89192 51.6323 1.88897ZM16.3441 3.42692C16.5644 3.42336 16.777 3.50929 16.9332 3.66516L22.5269 9.25015C22.8446 9.5684 22.8446 10.0816 22.5269 10.3999L8.87855 24.0199C8.72533 24.1728 8.51747 24.2587 8.3007 24.2587C8.08453 24.2587 7.87667 24.1728 7.72346 24.0199L2.13278 18.4378C1.97956 18.2849 1.89286 18.0775 1.89286 17.8612C1.89286 17.6448 1.97956 17.4374 2.13278 17.2851L15.7812 3.66507C15.9308 3.51572 16.1327 3.42988 16.3441 3.42692ZM45.7395 10.3904L57.2749 21.896C56.8663 23.3811 56.5997 24.9024 56.4797 26.4381C56.3247 28.4275 55.463 30.2962 54.0502 31.7072L50.8226 34.9252C50.6664 34.5892 50.452 34.2834 50.1895 34.0215L36.7649 20.6247C38.6114 20.7379 40.4452 20.2502 41.9898 19.2344C42.1727 19.0916 42.2161 18.8332 42.0884 18.6394C41.9607 18.4456 41.706 18.3816 41.5023 18.493C39.6744 19.6949 37.4182 20.0575 35.3045 19.4892C34.7148 19.3304 34.0853 19.4987 33.653 19.9295L27.4992 26.0706C26.9231 26.6253 26.0964 26.8357 25.3244 26.6241C24.5523 26.4125 23.9495 25.8104 23.7381 25.0394C23.5266 24.269 23.7381 23.444 24.2951 22.8697L34.562 12.6241C35.2586 11.929 36.1471 11.4572 37.1145 11.27C38.0813 11.0827 39.0825 11.1882 39.9894 11.5728C40.9551 11.9811 42.0222 12.0872 43.0491 11.8762C44.0759 11.6647 45.0151 11.146 45.7395 10.3904ZM27.748 11.5431C28.5824 11.5816 29.4138 11.6747 30.2357 11.8216C31.171 12.0439 32.0127 12.5535 32.6421 13.2784L23.6615 22.2403C22.8788 23.0391 22.5789 24.193 22.8729 25.2717C23.1668 26.3497 24.0107 27.1924 25.0916 27.4858C26.1719 27.7792 27.3276 27.4799 28.1288 26.6988L34.2826 20.5578C34.4358 20.4049 34.6436 20.319 34.8604 20.319C35.0766 20.319 35.2844 20.4049 35.4377 20.5578L49.5595 34.6497C50.1177 35.2239 50.3309 36.0495 50.1195 36.8216C49.9087 37.5933 49.3047 38.1966 48.5315 38.4075C47.7583 38.6191 46.9305 38.4075 46.355 37.8504L42.7211 34.2241C42.5454 34.0611 42.2716 34.0653 42.1011 34.2342C41.9313 34.4037 41.9254 34.6763 42.0881 34.8523L46.5232 39.2782C47.0666 39.8554 47.2685 40.675 47.0547 41.4377C46.8409 42.2004 46.2435 42.7966 45.4786 43.0087C44.7143 43.2215 43.8941 43.0194 43.3156 42.4765L36.8714 36.0457C36.695 35.8851 36.4242 35.8911 36.2556 36.0594C36.0869 36.2277 36.081 36.4991 36.2419 36.6745L40.7031 41.1324C41.2406 41.6794 41.4639 42.4599 41.297 43.2073C41.1307 43.9546 40.5968 44.5668 39.8782 44.8352C39.1597 45.1031 38.3538 44.9905 37.7367 44.5359C38.0289 43.7939 38.0277 42.969 37.7349 42.2276C37.4416 41.4862 36.878 40.8828 36.1576 40.5397C35.4366 40.196 34.6124 40.1379 33.8504 40.3767C34.0054 39.6021 33.8634 38.798 33.4525 38.123C33.0415 37.448 32.3924 36.9513 31.6322 36.7315C30.872 36.5116 30.0573 36.5845 29.3482 36.9353C29.4296 36.0689 29.1481 35.2077 28.5714 34.5558C27.9942 33.9033 27.1728 33.5181 26.3016 33.4914C25.4298 33.4642 24.5859 33.7972 23.9694 34.4124L23.1914 35.1888C23.2039 34.3478 22.8785 33.537 22.2887 32.9361C21.699 32.3357 20.8931 31.9955 20.0504 31.9908C19.2076 31.986 18.3976 32.3179 17.8014 32.9118L17.4005 33.3088C15.9615 32.3031 14.7702 30.9839 13.9174 29.4507C13.1044 27.3575 11.9083 25.4332 10.3911 23.7762L22.0565 12.135C23.9148 11.6537 25.8342 11.4546 27.7518 11.5435L27.748 11.5431ZM19.9284 32.8805C20.5407 32.8527 21.1393 33.0743 21.5858 33.4939C22.0324 33.9135 22.2896 34.4955 22.2991 35.1077C22.308 35.7193 22.0687 36.309 21.6351 36.7422L20.7936 37.579C20.2152 38.1183 19.3968 38.3174 18.6343 38.104C17.8723 37.8907 17.2767 37.2969 17.0629 36.5359C16.8497 35.7755 17.0486 34.9588 17.589 34.3811L18.4252 33.5413C18.8267 33.1413 19.3618 32.9054 19.9284 32.8805ZM26.233 34.4185C26.8192 34.4374 27.375 34.6822 27.7842 35.1012C28.1934 35.5208 28.4244 36.0814 28.428 36.6669C28.4315 37.2519 28.2076 37.8154 27.8038 38.2397L24.4051 41.6344C23.8267 42.1731 23.0077 42.3722 22.2458 42.1589C21.4839 41.9455 20.8882 41.3517 20.6744 40.5914C20.4612 39.8304 20.6602 39.0143 21.2 38.4365L24.5987 35.0419C25.0375 34.6247 25.6267 34.3995 26.233 34.4185ZM30.7987 37.5293C31.3854 37.5494 31.9419 37.7971 32.3499 38.2179C32.7584 38.6393 32.9871 39.2017 32.9877 39.7879C32.9889 40.374 32.762 40.937 32.3552 41.3595L30.0937 43.6157L28.242 45.4636C27.6689 46.0361 26.8333 46.2601 26.05 46.0509C25.2672 45.8417 24.6549 45.2319 24.4453 44.4507C24.235 43.6691 24.4583 42.8353 25.0314 42.2627L29.1506 38.158C29.593 37.7349 30.1863 37.5079 30.7987 37.5293ZM34.8245 41.1615C35.4112 41.1805 35.9683 41.4258 36.3775 41.846C36.7867 42.2656 37.0171 42.8274 37.0195 43.4129C37.0224 43.9985 36.798 44.5621 36.3923 44.9858L33.9308 47.4453C33.3571 48.0112 32.5245 48.2299 31.7459 48.0195C30.9668 47.8097 30.3581 47.2023 30.1478 46.4253C29.937 45.6477 30.1567 44.8174 30.7238 44.2444L33.1884 41.7849C33.6285 41.3671 34.2169 41.1419 34.8245 41.1615Z" fill="#B01736"/>
            <path d="M51.6174 1C51.1738 1.00652 50.7504 1.1855 50.4362 1.49842L44.8425 7.08052C44.5212 7.39996 44.3412 7.83377 44.3412 8.28655C44.3412 8.73933 44.5218 9.17315 44.8431 9.49317L45.1133 9.76222C44.5135 10.3934 43.7343 10.8266 42.8809 11.0038C42.0274 11.181 41.1402 11.0933 40.3378 10.7531C39.2676 10.2986 38.0864 10.1741 36.9451 10.3952C35.803 10.6162 34.7543 11.1727 33.9318 11.9929L33.2756 12.6478C32.5219 11.8003 31.5231 11.207 30.4166 10.9498C28.037 10.5225 25.599 10.5278 23.2212 10.967C23.8276 10.2937 23.8008 9.26424 23.1601 8.62369L17.5639 3.03916C16.897 2.37421 15.8155 2.37362 15.1486 3.03856L1.50019 16.6586C0.83327 17.3241 0.83327 18.4034 1.50019 19.0689L7.09634 24.6535C7.76326 25.319 8.84469 25.319 9.51166 24.6535L9.75276 24.4105C11.1971 25.9935 12.3326 27.8312 13.1022 29.8296C13.9995 31.4624 15.2521 32.8729 16.7681 33.9574C16.2051 34.6271 15.9456 35.5 16.0525 36.3677C16.1594 37.2354 16.622 38.0201 17.3305 38.5344C18.039 39.0482 18.9299 39.2455 19.7898 39.079C19.5606 39.7967 19.5956 40.5725 19.8902 41.2659C20.1841 41.9598 20.7174 42.5258 21.3933 42.8607C22.0697 43.1961 22.8435 43.2785 23.5752 43.0936C23.3478 43.9921 23.5271 44.9444 24.067 45.6983C24.6062 46.4521 25.4501 46.931 26.3754 47.008C27.3007 47.0851 28.2129 46.752 28.8697 46.0977L29.1684 45.8026C29.1565 46.6436 29.4813 47.4537 30.0717 48.0547C30.6614 48.655 31.4673 48.9958 32.31 48.9999C33.1527 49.0047 33.9622 48.6734 34.559 48.079L37.0265 45.6195C37.1209 45.5247 37.2088 45.4245 37.2902 45.319C37.9292 45.7647 38.7101 45.9591 39.484 45.8649C40.2578 45.7706 40.9693 45.3937 41.4819 44.8076C41.9944 44.2209 42.2711 43.4664 42.2598 42.6889L42.6868 43.112C43.4066 43.8315 44.4299 44.1604 45.4353 43.9956C46.4407 43.8303 47.3042 43.1914 47.755 42.2794C48.2057 41.3679 48.1885 40.2953 47.7081 39.3986C48.6458 39.4727 49.5674 39.126 50.2232 38.4528C50.8789 37.7795 51.1995 36.8497 51.0985 35.9168L54.6802 32.3425C56.2439 30.7809 57.1977 28.7126 57.3682 26.5109C57.4697 25.2029 57.6811 23.9056 58.0007 22.6327L58.4912 23.1163C59.1581 23.7818 60.2396 23.7818 60.9065 23.1163L66.5003 17.5342C67.1666 16.8686 67.1666 15.79 66.5003 15.1245L52.8519 1.50442C52.5253 1.17847 52.0798 0.9989 51.6178 1.006L51.6174 1ZM51.6323 1.88897C51.8526 1.88719 52.064 1.97371 52.219 2.12957L65.8645 15.7467C66.0177 15.8996 66.1038 16.1071 66.1038 16.3234C66.1038 16.5397 66.0177 16.7471 65.8645 16.8994L60.2738 22.4809C60.1206 22.6338 59.9127 22.7204 59.696 22.7204C59.4792 22.7204 59.2719 22.6344 59.1187 22.4815L45.4673 8.86148C45.1496 8.54382 45.1496 8.02941 45.4673 7.71176L51.0639 2.12965C51.2142 1.97853 51.4185 1.89192 51.6323 1.88897ZM16.3441 3.42692C16.5644 3.42336 16.777 3.50929 16.9332 3.66516L22.5269 9.25015C22.8446 9.5684 22.8446 10.0816 22.5269 10.3999L8.87855 24.0199C8.72533 24.1728 8.51747 24.2587 8.3007 24.2587C8.08453 24.2587 7.87667 24.1728 7.72346 24.0199L2.13278 18.4378C1.97956 18.2849 1.89286 18.0775 1.89286 17.8612C1.89286 17.6448 1.97956 17.4374 2.13278 17.2851L15.7812 3.66507C15.9308 3.51572 16.1327 3.42988 16.3441 3.42692ZM45.7395 10.3904L57.2749 21.896C56.8663 23.3811 56.5997 24.9024 56.4797 26.4381C56.3247 28.4275 55.463 30.2962 54.0502 31.7072L50.8226 34.9252C50.6664 34.5892 50.452 34.2834 50.1895 34.0215L36.7649 20.6247C38.6114 20.7379 40.4452 20.2502 41.9898 19.2344C42.1727 19.0916 42.2161 18.8332 42.0884 18.6394C41.9607 18.4456 41.706 18.3816 41.5023 18.493C39.6744 19.6949 37.4182 20.0575 35.3045 19.4892C34.7148 19.3304 34.0853 19.4987 33.653 19.9295L27.4992 26.0706C26.9231 26.6253 26.0964 26.8357 25.3244 26.6241C24.5523 26.4125 23.9495 25.8104 23.7381 25.0394C23.5266 24.269 23.7381 23.444 24.2951 22.8697L34.562 12.6241C35.2586 11.929 36.1471 11.4572 37.1145 11.27C38.0813 11.0827 39.0825 11.1882 39.9894 11.5728C40.9551 11.9811 42.0222 12.0872 43.0491 11.8762C44.0759 11.6647 45.0151 11.146 45.7395 10.3904ZM27.748 11.5431C28.5824 11.5816 29.4138 11.6747 30.2357 11.8216C31.171 12.0439 32.0127 12.5535 32.6421 13.2784L23.6615 22.2403C22.8788 23.0391 22.5789 24.193 22.8729 25.2717C23.1668 26.3497 24.0107 27.1924 25.0916 27.4858C26.1719 27.7792 27.3276 27.4799 28.1288 26.6988L34.2826 20.5578C34.4358 20.4049 34.6436 20.319 34.8604 20.319C35.0766 20.319 35.2844 20.4049 35.4377 20.5578L49.5595 34.6497C50.1177 35.2239 50.3309 36.0495 50.1195 36.8216C49.9087 37.5933 49.3047 38.1966 48.5315 38.4075C47.7583 38.6191 46.9305 38.4075 46.355 37.8504L42.7211 34.2241C42.5454 34.0611 42.2716 34.0653 42.1011 34.2342C41.9313 34.4037 41.9254 34.6763 42.0881 34.8523L46.5232 39.2782C47.0666 39.8554 47.2685 40.675 47.0547 41.4377C46.8409 42.2004 46.2435 42.7966 45.4786 43.0087C44.7143 43.2215 43.8941 43.0194 43.3156 42.4765L36.8714 36.0457C36.695 35.8851 36.4242 35.8911 36.2556 36.0594C36.0869 36.2277 36.081 36.4991 36.2419 36.6745L40.7031 41.1324C41.2406 41.6794 41.4639 42.4599 41.297 43.2073C41.1307 43.9546 40.5968 44.5668 39.8782 44.8352C39.1597 45.1031 38.3538 44.9905 37.7367 44.5359C38.0289 43.7939 38.0277 42.969 37.7349 42.2276C37.4416 41.4862 36.878 40.8828 36.1576 40.5397C35.4366 40.196 34.6124 40.1379 33.8504 40.3767C34.0054 39.6021 33.8634 38.798 33.4525 38.123C33.0415 37.448 32.3924 36.9513 31.6322 36.7315C30.872 36.5116 30.0573 36.5845 29.3482 36.9353C29.4296 36.0689 29.1481 35.2077 28.5714 34.5558C27.9942 33.9033 27.1728 33.5181 26.3016 33.4914C25.4298 33.4642 24.5859 33.7972 23.9694 34.4124L23.1914 35.1888C23.2039 34.3478 22.8785 33.537 22.2887 32.9361C21.699 32.3357 20.8931 31.9955 20.0504 31.9908C19.2076 31.986 18.3976 32.3179 17.8014 32.9118L17.4005 33.3088C15.9615 32.3031 14.7702 30.9839 13.9174 29.4507C13.1044 27.3575 11.9083 25.4332 10.3911 23.7762L22.0565 12.135C23.9148 11.6537 25.8342 11.4546 27.7518 11.5435L27.748 11.5431ZM19.9284 32.8805C20.5407 32.8527 21.1393 33.0743 21.5858 33.4939C22.0324 33.9135 22.2896 34.4955 22.2991 35.1077C22.308 35.7193 22.0687 36.309 21.6351 36.7422L20.7936 37.579C20.2152 38.1183 19.3968 38.3174 18.6343 38.104C17.8723 37.8907 17.2767 37.2969 17.0629 36.5359C16.8497 35.7755 17.0486 34.9588 17.589 34.3811L18.4252 33.5413C18.8267 33.1413 19.3618 32.9054 19.9284 32.8805ZM26.233 34.4185C26.8192 34.4374 27.375 34.6822 27.7842 35.1012C28.1934 35.5208 28.4244 36.0814 28.428 36.6669C28.4315 37.2519 28.2076 37.8154 27.8038 38.2397L24.4051 41.6344C23.8267 42.1731 23.0077 42.3722 22.2458 42.1589C21.4839 41.9455 20.8882 41.3517 20.6744 40.5914C20.4612 39.8304 20.6602 39.0143 21.2 38.4365L24.5987 35.0419C25.0375 34.6247 25.6267 34.3995 26.233 34.4185ZM30.7987 37.5293C31.3854 37.5494 31.9419 37.7971 32.3499 38.2179C32.7584 38.6393 32.9871 39.2017 32.9877 39.7879C32.9889 40.374 32.762 40.937 32.3552 41.3595L30.0937 43.6157L28.242 45.4636C27.6689 46.0361 26.8333 46.2601 26.05 46.0509C25.2672 45.8417 24.6549 45.2319 24.4453 44.4507C24.235 43.6691 24.4583 42.8353 25.0314 42.2627L29.1506 38.158C29.593 37.7349 30.1863 37.5079 30.7987 37.5293ZM34.8245 41.1615C35.4112 41.1805 35.9683 41.4258 36.3775 41.846C36.7867 42.2656 37.0171 42.8274 37.0195 43.4129C37.0224 43.9985 36.798 44.5621 36.3923 44.9858L33.9308 47.4453C33.3571 48.0112 32.5245 48.2299 31.7459 48.0195C30.9668 47.8097 30.3581 47.2023 30.1478 46.4253C29.937 45.6477 30.1567 44.8174 30.7238 44.2444L33.1884 41.7849C33.6285 41.3671 34.2169 41.1419 34.8245 41.1615Z" stroke="#B01736" mask="url(#path-1-outside-1_1_394)"/>
        </g>
    </symbol>
    <symbol id="mobile" xmlns="http://www.w3.org/2000/svg" viewBox="0 0 48 48" fill="none">
        <g opacity="0.9" clip-path="url(#clip0_1_380)">
            <rect x="8.19922" y="1" width="31.6" height="46" rx="4" stroke="#B01736" stroke-width="2"/>
            <path d="M15.3984 1H32.5984V5C32.5984 6.10457 31.703 7 30.5984 7H17.3984C16.2939 7 15.3984 6.10457 15.3984 5V1Z" stroke="#B01736" stroke-width="2"/>
            <path d="M19.1992 40H28.7992" stroke="#B01736" stroke-width="2" stroke-linecap="round"/>
        </g>
        <defs>
            <clipPath id="clip0_1_380">
                <rect width="48" height="48" fill="white"/>
            </clipPath>
        </defs>
    </symbol>
    <symbol id="technique" xmlns="http://www.w3.org/2000/svg" viewBox="0 0 48 48" fill="none">
        <g clip-path="url(#clip0_1_404)">
            <path d="M36.7234 12.7466V1H11.2766V12.7466M9.32055 38.418L1 38.4253V18.6117C1 15.3726 3.62914 12.7467 6.87234 12.7467H41.1277C44.3709 12.7467 47 15.3726 47 18.6117V38.4253L38.6822 38.418M9.32055 29.8361H38.6822V47H9.32055V29.8361Z" stroke="#B01736" stroke-width="2"/>
        </g>
        <defs>
            <clipPath id="clip0_1_404">
                <rect width="48" height="48" fill="white"/>
            </clipPath>
        </defs>
    </symbol>
    <symbol id="vhi" xmlns="http://www.w3.org/2000/svg" viewBox="0 0 50 50" fill="none">
        <g opacity="0.9">
            <path d="M5.03413 15.3129C5.28021 13.3072 6.9836 11.8 9.00436 11.8H42.0023C44.0695 11.8 45.7961 13.375 45.9855 15.4335L48.5982 43.8281C48.8139 46.172 46.9689 48.1946 44.615 48.1946H5.52074C3.1184 48.1946 1.25796 46.0919 1.5505 43.7075L5.03413 15.3129Z" stroke="#B01736" stroke-width="2"/>
            <path d="M25 20.6367V39.3566" stroke="#B01736" stroke-width="2" stroke-linecap="round"/>
            <path d="M15.1523 29.9971H34.8447" stroke="#B01736" stroke-width="2" stroke-linecap="round"/>
            <path d="M34.5984 11.7996V5.59961C34.5984 3.39047 32.8076 1.59961 30.5984 1.59961H19.3984C17.1893 1.59961 15.3984 3.39047 15.3984 5.59961V11.7996" stroke="#B01736" stroke-width="2"/>
        </g>
    </symbol>
    <symbol id="mob-arrow-black" xmlns="http://www.w3.org/2000/svg"  viewBox="0 0 8 4" fill="none">
        <path d="M4 4L7.4641 0.25H0.535898L4 4Z" fill="#444444"/>
    </symbol>
</svg>